<?xml version="1.0" encoding="utf-8"?>
<!-- Generator: Adobe Illustrator 27.3.1, SVG Export Plug-In . SVG Version: 6.00 Build 0)  -->
<svg version="1.1" id="Layer_1" xmlns="http://www.w3.org/2000/svg" xmlns:xlink="http://www.w3.org/1999/xlink" x="0px" y="0px"
	 viewBox="0 0 50 44" style="enable-background:new 0 0 50 44;" xml:space="preserve">
<style type="text/css">
	.st0{display:none;opacity:0.73;}
	.st1{display:inline;fill:#35A858;}
	.st2{fill:#067CFB;}
	.st3{fill:none;stroke:#11171E;stroke-width:0.75;stroke-miterlimit:10;}
	.st4{fill:#00BE41;}
	.st5{fill:#040A0F;stroke:#0F1316;stroke-miterlimit:10;}
	.st6{fill:#1976D2;stroke:#000201;stroke-width:0.75;stroke-miterlimit:10;}
	.st7{fill:#00BE41;stroke:#FFFFFF;stroke-width:0.5;stroke-miterlimit:10;}
</style>
<image style="display:none;overflow:visible;" width="513" height="442" xlink:href="46162C3C.jpg"  transform="matrix(9.583855e-02 0 0 9.583855e-02 0.8348 3.8197)">
</image>
<g class="st0">
	<path class="st1" d="M20.6,19c-0.2-1.6-0.8-4.6-2.9-6.7c-0.5-0.5-0.9-0.8-1-0.9c-1.9-1.4-3.9-1.6-5-1.6c-0.3,0.5-0.6,1.4-0.7,2.7
		c0,0.5,0,2.1,1,3.6c1.2,1.7,2.9,2.2,3.3,2.3c0.4,0.2,1,0.6,1.7,1c0.2,0.1,0.5,0.3,0.8,0.6c0.4,0.3,1,0.8,1.6,1.3
		c-0.1-0.2-0.3-0.4-0.5-0.7c-0.5-0.7-1.4-1.6-3.7-3.6c-0.9-0.8-1.3-1.1-1.6-1.8c-0.3-0.5-0.7-1.5-0.3-1.8c0.4-0.4,1.9,0.6,2.4,1
		c0.9,0.6,2.2,1.5,2.9,3.1c0.6,1.4,0.5,2.5,1,2.6C19.9,20.2,20.3,19.6,20.6,19z"/>
	<path class="st1" d="M23.6,17.8c0.6-1.5,1.5-4.4,0.7-7.2c-0.2-0.7-0.4-1.2-0.5-1.3c-1-2.1-2.6-3.3-3.6-3.8c-0.5,0.3-1.3,1-1.9,2
		c-0.3,0.4-1,1.8-0.8,3.7c0.2,2,1.5,3.3,1.8,3.6c0.3,0.4,0.6,1,1,1.7c0.1,0.2,0.3,0.5,0.4,0.9c0.2,0.5,0.5,1.1,0.7,1.9
		c0-0.2-0.1-0.5-0.1-0.9c-0.2-0.9-0.5-2.1-1.5-4.9c-0.4-1.1-0.6-1.6-0.6-2.3c0-0.5,0.1-1.6,0.5-1.7c0.6-0.1,1.4,1.4,1.6,2
		c0.5,1,1.2,2.4,1.1,4.1c-0.1,1.5-0.8,2.4-0.4,2.7C22.4,18.5,23.1,18.1,23.6,17.8z"/>
	<path class="st1" d="M26.8,18.4c1.2-1,3.4-3.2,4-6.1c0.1-0.7,0.2-1.2,0.2-1.3c0.1-2.3-0.8-4.1-1.4-5C29,6,28,6.2,27,6.9
		c-0.4,0.3-1.8,1.1-2.4,2.8c-0.8,1.9-0.2,3.6-0.1,4.1c0,0.5,0.1,1.2,0.1,2c0,0.2,0,0.6,0,1c0,0.5-0.1,1.2-0.3,2
		c0.1-0.2,0.2-0.5,0.3-0.8c0.3-0.8,0.6-2,1-5.1c0.2-1.1,0.2-1.7,0.6-2.3c0.3-0.5,0.9-1.4,1.3-1.3c0.6,0.1,0.5,1.9,0.5,2.5
		c0,1.1,0,2.6-1,4.2c-0.8,1.3-1.8,1.8-1.6,2.2C25.4,18.5,26.2,18.5,26.8,18.4z"/>
	<path class="st1" d="M29.2,20.6c1.5-0.5,4.3-1.7,5.9-4.2c0.4-0.6,0.6-1.1,0.6-1.2c0.9-2.1,0.7-4.1,0.5-5.2
		c-0.6-0.1-1.5-0.3-2.7-0.1c-0.5,0.1-2,0.4-3.3,1.8c-1.4,1.5-1.5,3.3-1.6,3.7c-0.1,0.5-0.3,1.1-0.6,1.9c-0.1,0.2-0.2,0.5-0.4,0.9
		c-0.2,0.5-0.6,1.1-1,1.8c0.1-0.1,0.3-0.4,0.6-0.7c0.5-0.7,1.3-1.7,2.7-4.4c0.6-1,0.8-1.5,1.4-2c0.4-0.4,1.3-1,1.7-0.7
		c0.5,0.3-0.2,2-0.4,2.5c-0.4,1-1,2.4-2.4,3.5c-1.2,0.9-2.3,1-2.3,1.5C27.9,20.1,28.6,20.4,29.2,20.6z"/>
	<path class="st1" d="M30.3,23.5c1.6,0.2,4.6,0.5,7.2-0.9c0.6-0.3,1-0.7,1.1-0.7c1.8-1.4,2.6-3.3,2.9-4.3c-0.4-0.4-1.2-1-2.4-1.4
		c-0.5-0.2-2-0.6-3.7,0c-1.9,0.7-2.9,2.1-3.1,2.6c-0.4,0.4-0.8,0.8-1.4,1.3c-0.2,0.1-0.4,0.4-0.8,0.6c-0.4,0.3-1,0.7-1.7,1.1
		c0.2-0.1,0.5-0.2,0.8-0.3c0.8-0.3,1.9-0.9,4.5-2.5c1-0.6,1.4-0.9,2.2-1.1c0.5-0.1,1.6-0.2,1.8,0.2c0.3,0.5-1.1,1.6-1.6,2
		c-0.8,0.7-2,1.7-3.8,1.9c-1.5,0.2-2.5-0.2-2.7,0.2C29.3,22.5,29.8,23.1,30.3,23.5z"/>
	<path class="st1" d="M28.4,26.7c1.2,1,3.7,2.7,6.7,2.8c0.7,0,1.2-0.1,1.3-0.1c2.3-0.3,3.9-1.5,4.7-2.3c-0.2-0.5-0.5-1.5-1.4-2.4
		c-0.3-0.4-1.4-1.5-3.2-1.9c-2-0.4-3.6,0.4-4,0.7c-0.5,0.1-1.1,0.3-1.9,0.4c-0.2,0-0.6,0.1-0.9,0.1c-0.5,0.1-1.2,0.1-2.1,0.1
		c0.2,0,0.5,0.1,0.9,0.1c0.9,0.1,2.1,0.2,5.2,0c1.1-0.1,1.7-0.1,2.4,0.1c0.5,0.2,1.5,0.6,1.5,1c0,0.6-1.8,0.9-2.4,1
		c-1.1,0.2-2.6,0.4-4.3-0.2c-1.4-0.6-2.1-1.5-2.5-1.2C28,25.3,28.2,26.1,28.4,26.7z"/>
	<path class="st1" d="M19.1,21.7c-0.8-1.4-2.5-3.9-5.3-5c-0.6-0.3-1.2-0.4-1.3-0.4c-2.3-0.5-4.2,0.1-5.2,0.5c0,0.6,0,1.6,0.4,2.7
		c0.2,0.5,0.8,1.9,2.4,2.9c1.7,1.1,3.5,0.9,4,0.8c0.5,0,1.2,0.1,1.9,0.3c0.2,0,0.5,0.1,0.9,0.2c0.5,0.1,1.2,0.3,2,0.6
		c-0.2-0.1-0.4-0.2-0.8-0.4c-0.8-0.4-1.9-0.9-4.8-1.9c-1.1-0.4-1.6-0.5-2.2-1c-0.4-0.3-1.2-1.1-1-1.5c0.2-0.5,2-0.2,2.6-0.1
		c1.1,0.2,2.6,0.5,3.9,1.7c1.1,1,1.4,2.1,1.9,2C18.9,23.1,19.1,22.4,19.1,21.7z"/>
	<path class="st1" d="M19.7,25.2c-1.3-0.9-3.9-2.5-6.8-2.4c-0.7,0-1.2,0.1-1.3,0.2c-2.3,0.5-3.8,1.8-4.6,2.5
		c0.2,0.5,0.6,1.4,1.5,2.3c0.4,0.4,1.5,1.4,3.3,1.7c2,0.3,3.5-0.6,4-0.9c0.5-0.2,1.1-0.4,1.9-0.5c0.2-0.1,0.5-0.1,0.9-0.2
		c0.5-0.1,1.2-0.2,2.1-0.2c-0.2,0-0.5-0.1-0.9-0.1c-0.9-0.1-2.1-0.1-5.1,0.3c-1.1,0.1-1.7,0.2-2.4,0c-0.5-0.1-1.5-0.5-1.5-0.9
		c0-0.6,1.7-1,2.3-1.1c1-0.2,2.6-0.6,4.3,0c1.5,0.5,2.2,1.3,2.5,1.1C20.1,26.6,20,25.8,19.7,25.2z"/>
</g>
<circle class="st2" cx="25.4" cy="27.6" r="7.2"/>
<path class="st3" d="M25.4,27.6"/>
<g>
	<g>
		<path class="st4" d="M20.6,18.7c-0.2-1.7-0.9-5.1-3.2-7.5c-0.5-0.5-1.1-0.9-1.1-1c-2.1-1.5-4.3-1.8-5.6-1.8
			c-0.3,0.6-0.7,1.6-0.8,3c0,0.6,0,2.3,1.1,4c1.3,1.9,3.2,2.5,3.7,2.6c0.5,0.3,1.2,0.6,1.9,1.1c0.2,0.1,0.5,0.4,0.9,0.6
			c0.5,0.4,1.1,0.9,1.8,1.5c-0.1-0.2-0.3-0.4-0.6-0.8c-0.6-0.8-1.5-1.8-4.1-4c-1-0.8-1.4-1.2-1.8-2c-0.3-0.5-0.7-1.7-0.4-2
			c0.5-0.4,2.1,0.7,2.7,1.1c1,0.7,2.4,1.7,3.3,3.5c0.7,1.6,0.6,2.8,1.1,2.9C19.8,20,20.2,19.3,20.6,18.7z"/>
		<path class="st4" d="M24,17.3c0.6-1.6,1.7-4.9,0.8-8.1c-0.2-0.7-0.5-1.3-0.5-1.4c-1.1-2.3-3-3.7-4-4.3c-0.5,0.4-1.4,1.1-2.1,2.3
			c-0.3,0.5-1.2,2-0.9,4.1c0.2,2.3,1.6,3.7,2,4.1c0.3,0.5,0.7,1.1,1.1,1.9c0.1,0.2,0.3,0.6,0.5,1c0.2,0.6,0.5,1.3,0.8,2.2
			c0-0.2-0.1-0.6-0.2-1c-0.2-1-0.5-2.3-1.7-5.5c-0.4-1.2-0.7-1.7-0.7-2.6c0-0.6,0.1-1.8,0.6-1.9c0.6-0.1,1.5,1.6,1.8,2.2
			c0.6,1.1,1.4,2.6,1.2,4.7c-0.1,1.7-0.9,2.7-0.4,3.1C22.6,18.1,23.3,17.7,24,17.3z"/>
		<path class="st4" d="M27.5,18c1.3-1.2,3.8-3.6,4.5-6.8c0.2-0.7,0.2-1.4,0.2-1.5c0.1-2.6-0.9-4.6-1.6-5.7c-0.6,0.1-1.7,0.3-2.9,1
			c-0.5,0.3-2,1.3-2.7,3.2c-0.8,2.1-0.3,4-0.1,4.6C25,13.4,25,14.1,25,15c0,0.3,0,0.6,0,1.1c0,0.6-0.1,1.4-0.3,2.3
			c0.1-0.2,0.2-0.5,0.3-0.9c0.3-0.9,0.6-2.3,1.1-5.7c0.2-1.3,0.2-1.9,0.6-2.6c0.3-0.5,1-1.5,1.4-1.4c0.6,0.2,0.6,2.2,0.6,2.8
			c0,1.2,0,3-1.1,4.7c-0.9,1.5-2,2-1.8,2.5C25.9,18.1,26.8,18.1,27.5,18z"/>
		<path class="st4" d="M30.3,20.5c1.7-0.6,4.8-2,6.6-4.7c0.4-0.6,0.7-1.2,0.7-1.3c1.1-2.4,0.8-4.6,0.6-5.8c-0.6-0.2-1.7-0.4-3.1-0.1
			c-0.6,0.1-2.3,0.5-3.7,2c-1.6,1.7-1.7,3.7-1.7,4.2c-0.2,0.6-0.4,1.3-0.7,2.1c-0.1,0.2-0.2,0.6-0.4,1c-0.3,0.5-0.6,1.2-1.1,2
			c0.1-0.2,0.4-0.4,0.6-0.8c0.6-0.8,1.4-1.9,3.1-4.9c0.6-1.1,0.9-1.6,1.6-2.2c0.5-0.4,1.5-1.1,1.9-0.8c0.5,0.4-0.2,2.2-0.5,2.8
			c-0.5,1.1-1.1,2.7-2.7,4c-1.4,1-2.6,1.1-2.6,1.7C28.7,19.9,29.5,20.3,30.3,20.5z"/>
		<path class="st4" d="M31.4,23.8c1.7,0.3,5.2,0.6,8.1-1c0.7-0.4,1.2-0.8,1.3-0.8c2.1-1.6,2.9-3.7,3.3-4.9c-0.5-0.4-1.4-1.1-2.7-1.6
			c-0.5-0.2-2.2-0.7-4.2,0c-2.2,0.7-3.2,2.4-3.5,2.9c-0.4,0.4-0.9,0.9-1.6,1.5c-0.2,0.2-0.5,0.4-0.8,0.7c-0.5,0.4-1.1,0.8-1.9,1.3
			c0.2-0.1,0.5-0.2,0.9-0.4c0.9-0.4,2.1-1,5-2.9c1.1-0.7,1.6-1,2.4-1.2c0.6-0.1,1.8-0.3,2,0.2c0.3,0.6-1.3,1.8-1.8,2.3
			c-0.9,0.8-2.3,1.9-4.3,2.2c-1.7,0.3-2.9-0.2-3.1,0.2C30.3,22.6,30.9,23.2,31.4,23.8z"/>
		<path class="st4" d="M29.2,27.3c1.4,1.1,4.2,3.1,7.5,3.1c0.8,0,1.4-0.1,1.5-0.1c2.6-0.4,4.4-1.7,5.3-2.6c-0.2-0.6-0.6-1.7-1.5-2.7
			c-0.4-0.4-1.6-1.7-3.6-2.1c-2.3-0.4-4,0.5-4.5,0.7c-0.5,0.2-1.3,0.3-2.1,0.5c-0.3,0-0.6,0.1-1.1,0.2c-0.6,0.1-1.4,0.1-2.3,0.1
			c0.2,0,0.6,0.1,1,0.1c1,0.1,2.4,0.2,5.8,0c1.3-0.1,1.9-0.1,2.7,0.2c0.6,0.2,1.7,0.7,1.7,1.2c0,0.6-2,1-2.7,1.1
			c-1.2,0.2-2.9,0.5-4.8-0.2c-1.6-0.6-2.4-1.6-2.8-1.3C28.9,25.7,29,26.6,29.2,27.3z"/>
		<path class="st4" d="M18.9,21.7C18,20.2,16,17.4,13,16.1c-0.7-0.3-1.3-0.4-1.4-0.5c-2.5-0.6-4.7,0.1-5.8,0.5c0,0.6,0,1.8,0.5,3
			c0.2,0.5,0.9,2.2,2.7,3.3c1.9,1.2,3.9,1,4.5,0.9c0.6,0,1.3,0.1,2.2,0.3c0.3,0,0.6,0.1,1,0.2c0.6,0.1,1.3,0.4,2.2,0.7
			c-0.2-0.1-0.5-0.3-0.9-0.5c-0.9-0.4-2.1-1-5.4-2.1c-1.2-0.4-1.8-0.6-2.5-1.1c-0.5-0.4-1.3-1.2-1.1-1.7c0.3-0.6,2.2-0.2,2.9-0.1
			c1.2,0.2,2.9,0.6,4.4,1.9c1.3,1.2,1.6,2.4,2.1,2.2C18.7,23.3,18.8,22.5,18.9,21.7z"/>
		<path class="st4" d="M19.6,25.6c-1.4-1-4.4-2.8-7.7-2.7c-0.8,0-1.4,0.1-1.5,0.2c-2.5,0.5-4.3,2-5.1,2.9c0.2,0.6,0.7,1.6,1.7,2.6
			c0.4,0.4,1.7,1.6,3.8,1.9c2.3,0.3,4-0.7,4.4-1c0.5-0.2,1.3-0.4,2.1-0.6c0.3-0.1,0.6-0.1,1.1-0.2c0.6-0.1,1.4-0.2,2.3-0.3
			c-0.2,0-0.6-0.1-1-0.1c-1-0.1-2.4-0.1-5.8,0.3c-1.3,0.1-1.9,0.2-2.7,0c-0.6-0.2-1.7-0.6-1.7-1.1c0-0.6,1.9-1.1,2.6-1.2
			c1.2-0.3,2.9-0.7,4.8,0c1.6,0.5,2.4,1.5,2.9,1.2C20,27.1,19.8,26.3,19.6,25.6z"/>
	</g>
	<path class="st5" d="M24.9,40.5h-2.1v-0.5c0,0-6-3.2-8.2-3.8c-2.2-0.6-10.1,0-10.1,0l7.7-9.4L26,30l-1.1,10"/>
	<path class="st5" d="M23.9,40.5h2.1v-0.5c0,0,6.1-3.2,8.4-3.8c2.3-0.6,10.3,0,10.3,0l-7.8-9.4L22.8,30l1.1,10"/>
	<path class="st6" d="M23.9,40c0,0-7.1-4.7-9.8-5.3s-11.7,0-11.7,0l9.6-9.6c4.6,0.5,8.4,0.4,12,0V40z"/>
	<path class="st6" d="M24.7,39.9c0,0,7.6-4.7,10.5-5.3c2.9-0.6,12.5,0,12.5,0L37.4,25c-4.9,0.5-9,0.4-12.8,0V39.9z"/>
	
		<image style="overflow:visible;" width="1024" height="1024" xlink:href="C:\Users\Personal\Downloads\—Pngtree—earth vector icon_3746518.png"  transform="matrix(-1.250745e-02 -1.244785e-02 1.244785e-02 -1.250745e-02 24.6899 36.7431)">
	</image>
	<path class="st7" d="M24.7,39.9c0,0,3.3-4.9,6.8-6.7c3.5-1.8,7.9-1.4,7.9-1.4l-5.6-7.2c0,0-2.6-0.2-5,0.5c-2.3,0.7-4.2,2.1-4.2,2.1
		V39.9z"/>
	<path class="st7" d="M24.7,39.9c0,0-3.3-4.9-6.6-6.7c-3.4-1.8-7.7-1.4-7.7-1.4l5.5-7.2c0,0,2.6-0.2,4.9,0.5
		c2.3,0.7,4.1,2.1,4.1,2.1V39.9z"/>
</g>
</svg>
