<?xml version="1.0" encoding="utf-8"?>
<!-- Generator: Adobe Illustrator 27.3.1, SVG Export Plug-In . SVG Version: 6.00 Build 0)  -->
<svg version="1.1" id="Layer_1" xmlns="http://www.w3.org/2000/svg" xmlns:xlink="http://www.w3.org/1999/xlink" x="0px" y="0px"
	 viewBox="0 0 169 44" style="enable-background:new 0 0 169 44;" xml:space="preserve">
<style type="text/css">
	.st0{fill:#FFFFFF;}
	.st1{fill:#00BE41;}
	.st2{fill:#040A0F;stroke:#0F1316;stroke-miterlimit:10;}
	.st3{fill:#1976D2;stroke:#000201;stroke-width:0.75;stroke-miterlimit:10;}
	.st4{fill:#00BE41;stroke:#FFFFFF;stroke-width:0.5;stroke-miterlimit:10;}
</style>
<path class="st0" d="M56.7,11.4h12.9v3.9h-8.8V20h7.6v3.9h-7.6V32h-4.1V11.4z M72.8,19.8h3.9V32h-3.9V19.8z M72.7,15.4
	c0-0.6,0.2-1.1,0.7-1.4c0.5-0.4,1-0.6,1.5-0.6c0.5,0,1,0.2,1.4,0.6c0.4,0.4,0.7,0.8,0.7,1.4c0,0.6-0.2,1.1-0.7,1.4
	c-0.4,0.4-0.9,0.5-1.4,0.5c-0.5,0-1-0.2-1.5-0.5C72.9,16.5,72.7,16,72.7,15.4z M80.8,9.9h3.9V32h-3.9V9.9z M92.3,19.8l0.3,2.2
	l-0.1-0.2c0.5-0.8,1.1-1.5,1.8-1.9c0.7-0.5,1.6-0.7,2.6-0.7c0.7,0,1.3,0.1,1.8,0.3c0.5,0.2,1,0.5,1.3,0.8c0.4,0.4,0.6,0.8,0.7,1.4
	l-0.1,0c0.5-0.8,1.1-1.4,1.9-1.8c0.7-0.5,1.5-0.7,2.3-0.7c1.2,0,2.2,0.3,2.9,1c0.7,0.7,1.1,1.5,1.1,2.6V32H105v-7.6
	c0-0.5-0.1-1-0.3-1.3c-0.1-0.4-0.5-0.6-1-0.6c-0.6,0-1.2,0.2-1.6,0.7c-0.4,0.4-0.8,1-1,1.7c-0.2,0.7-0.3,1.4-0.3,2.1v5h-3.9v-7.6
	c0-0.5-0.1-1-0.3-1.3c-0.2-0.4-0.5-0.6-1.1-0.6c-0.6,0-1.1,0.2-1.6,0.7c-0.4,0.4-0.7,1-1,1.7c-0.2,0.7-0.3,1.4-0.3,2.1V32h-3.9V19.8
	H92.3z M112.9,9.9h3.9V32h-3.9V9.9z M126,32.3c-1.1,0-2.2-0.2-3.1-0.7c-0.9-0.5-1.6-1.2-2.2-2.1c-0.5-1-0.8-2.2-0.8-3.6
	c0-1.4,0.3-2.6,0.8-3.6s1.3-1.8,2.2-2.3c0.9-0.6,1.9-0.8,2.9-0.8c1.2,0,2.1,0.2,2.7,0.6c0.6,0.4,1.2,0.8,1.6,1.3l-0.2,0.5l0.4-1.8
	h3.6V32h-3.9v-2.7l0.3,0.8c0,0-0.1,0.1-0.3,0.3c-0.2,0.2-0.5,0.5-0.8,0.8c-0.4,0.3-0.8,0.5-1.3,0.7C127.4,32.2,126.7,32.3,126,32.3z
	 M127.1,29.1c0.5,0,0.9-0.1,1.3-0.2c0.4-0.1,0.7-0.4,1-0.6c0.3-0.3,0.5-0.6,0.7-1v-3c-0.1-0.4-0.4-0.8-0.7-1
	c-0.3-0.3-0.7-0.5-1.1-0.7c-0.4-0.2-0.9-0.3-1.4-0.3c-0.6,0-1.1,0.1-1.6,0.4c-0.5,0.3-0.8,0.7-1.1,1.2c-0.3,0.5-0.4,1.1-0.4,1.7
	c0,0.7,0.1,1.2,0.4,1.8c0.3,0.5,0.7,0.9,1.2,1.2C126,29,126.5,29.1,127.1,29.1z M141.6,19.8l0.3,2.2l-0.1-0.2c0.4-0.8,1-1.4,1.8-1.8
	c0.8-0.5,1.7-0.7,2.9-0.7c1.2,0,2.1,0.3,2.9,1c0.8,0.7,1.2,1.5,1.2,2.6V32h-3.9v-7.7c0-0.5-0.2-1-0.4-1.3c-0.3-0.3-0.7-0.5-1.3-0.5
	c-0.6,0-1.1,0.2-1.6,0.6s-0.8,0.9-1,1.6c-0.2,0.7-0.4,1.4-0.4,2.3v5H138V19.8H141.6z M160.7,32.3c-1.5,0-2.8-0.3-3.8-0.8
	c-1-0.6-1.8-1.3-2.4-2.3c-0.5-1-0.8-2.1-0.8-3.4c0-1.2,0.3-2.3,1-3.3c0.6-1,1.5-1.8,2.5-2.4c1.1-0.6,2.2-0.9,3.6-0.9
	c1.8,0,3.2,0.5,4.3,1.5c1.1,1,1.9,2.5,2.2,4.4l-9.5,3l-0.9-2.1l6.9-2.3L163,24c-0.1-0.5-0.4-0.9-0.8-1.3c-0.4-0.4-0.9-0.6-1.7-0.6
	c-0.6,0-1.1,0.1-1.5,0.4c-0.4,0.3-0.8,0.6-1,1.1c-0.2,0.5-0.3,1.1-0.3,1.7c0,0.8,0.1,1.4,0.4,1.9c0.3,0.5,0.7,0.9,1.1,1.1
	c0.5,0.3,1,0.4,1.6,0.4c0.4,0,0.8-0.1,1.2-0.2c0.4-0.1,0.8-0.3,1.2-0.6l1.7,2.9c-0.7,0.4-1.4,0.7-2.1,0.9
	C162.1,32.2,161.4,32.3,160.7,32.3z"/>
<g>
	<g>
		<path class="st1" d="M26,18.9c-0.2-1.7-0.9-5.1-3.2-7.5c-0.5-0.5-1.1-0.9-1.1-1c-2.1-1.5-4.3-1.8-5.6-1.8c-0.3,0.6-0.7,1.6-0.8,3
			c0,0.6,0,2.3,1.1,4c1.3,1.9,3.2,2.5,3.7,2.6c0.5,0.3,1.2,0.6,1.9,1.1c0.2,0.1,0.5,0.4,0.9,0.6c0.5,0.4,1.1,0.9,1.8,1.5
			c-0.1-0.2-0.3-0.4-0.6-0.8c-0.6-0.8-1.5-1.8-4.1-4c-1-0.8-1.4-1.2-1.8-2c-0.3-0.5-0.7-1.7-0.4-2c0.5-0.4,2.1,0.7,2.7,1.1
			c1,0.7,2.4,1.7,3.3,3.5c0.7,1.6,0.6,2.8,1.1,2.9C25.2,20.3,25.7,19.6,26,18.9z"/>
		<path class="st1" d="M29.4,17.6c0.6-1.6,1.7-4.9,0.8-8.1c-0.2-0.7-0.5-1.3-0.5-1.4c-1.1-2.3-3-3.7-4-4.3c-0.5,0.4-1.4,1.1-2.1,2.3
			c-0.3,0.5-1.2,2-0.9,4.1c0.2,2.3,1.6,3.7,2,4.1c0.3,0.5,0.7,1.1,1.1,1.9c0.1,0.2,0.3,0.6,0.5,1c0.2,0.6,0.5,1.3,0.8,2.2
			c0-0.2-0.1-0.6-0.2-1c-0.2-1-0.5-2.3-1.7-5.5c-0.4-1.2-0.7-1.7-0.7-2.6c0-0.6,0.1-1.8,0.6-1.9c0.6-0.1,1.5,1.6,1.8,2.2
			c0.6,1.1,1.4,2.6,1.2,4.7c-0.1,1.7-0.9,2.7-0.4,3.1C28,18.4,28.8,18,29.4,17.6z"/>
		<path class="st1" d="M33,18.3c1.3-1.2,3.8-3.6,4.5-6.8c0.2-0.7,0.2-1.4,0.2-1.5c0.1-2.6-0.9-4.6-1.6-5.7c-0.6,0.1-1.7,0.3-2.9,1
			c-0.5,0.3-2,1.3-2.7,3.2c-0.8,2.1-0.3,4-0.1,4.6c0.1,0.6,0.1,1.3,0.1,2.2c0,0.3,0,0.6,0,1.1c0,0.6-0.1,1.4-0.3,2.3
			c0.1-0.2,0.2-0.5,0.3-0.9c0.3-0.9,0.6-2.3,1.1-5.7c0.2-1.3,0.2-1.9,0.6-2.6c0.3-0.5,1-1.5,1.4-1.4c0.6,0.2,0.6,2.2,0.6,2.8
			c0,1.2,0,3-1.1,4.7c-0.9,1.5-2,2-1.8,2.5C31.4,18.4,32.2,18.4,33,18.3z"/>
		<path class="st1" d="M35.7,20.8c1.7-0.6,4.8-2,6.6-4.7c0.4-0.6,0.7-1.2,0.7-1.3c1.1-2.4,0.8-4.6,0.6-5.8c-0.6-0.2-1.7-0.4-3.1-0.1
			c-0.6,0.1-2.3,0.5-3.7,2c-1.6,1.7-1.7,3.7-1.7,4.2c-0.2,0.6-0.4,1.3-0.7,2.1c-0.1,0.2-0.2,0.6-0.4,1c-0.3,0.5-0.6,1.2-1.1,2
			c0.1-0.2,0.4-0.4,0.6-0.8c0.6-0.8,1.4-1.9,3.1-4.9c0.6-1.1,0.9-1.6,1.6-2.2c0.5-0.4,1.5-1.1,1.9-0.8c0.5,0.4-0.2,2.2-0.5,2.8
			c-0.5,1.1-1.1,2.7-2.7,4c-1.4,1-2.6,1.1-2.6,1.7C34.2,20.2,35,20.5,35.7,20.8z"/>
		<path class="st1" d="M36.8,24c1.7,0.3,5.2,0.6,8.1-1c0.7-0.4,1.2-0.8,1.3-0.8c2.1-1.6,2.9-3.7,3.3-4.9c-0.5-0.4-1.4-1.1-2.7-1.6
			c-0.5-0.2-2.2-0.7-4.2,0c-2.2,0.7-3.2,2.4-3.5,2.9c-0.4,0.4-0.9,0.9-1.6,1.5c-0.2,0.2-0.5,0.4-0.8,0.7c-0.5,0.4-1.1,0.8-1.9,1.3
			c0.2-0.1,0.5-0.2,0.9-0.4c0.9-0.4,2.1-1,5-2.9c1.1-0.7,1.6-1,2.4-1.2c0.6-0.1,1.8-0.3,2,0.2c0.3,0.6-1.3,1.8-1.8,2.3
			C42.4,20.9,41,22,39,22.3c-1.7,0.3-2.9-0.2-3.1,0.2C35.8,22.9,36.3,23.5,36.8,24z"/>
		<path class="st1" d="M34.7,27.6c1.4,1.1,4.2,3.1,7.5,3.1c0.8,0,1.4-0.1,1.5-0.1c2.6-0.4,4.4-1.7,5.3-2.6c-0.2-0.6-0.6-1.7-1.5-2.7
			c-0.4-0.4-1.6-1.7-3.6-2.1c-2.3-0.4-4,0.5-4.5,0.7c-0.5,0.2-1.3,0.3-2.1,0.5c-0.3,0-0.6,0.1-1.1,0.2c-0.6,0.1-1.4,0.1-2.3,0.1
			c0.2,0,0.6,0.1,1,0.1c1,0.1,2.4,0.2,5.8,0c1.3-0.1,1.9-0.1,2.7,0.2c0.6,0.2,1.7,0.7,1.7,1.2c0,0.6-2,1-2.7,1.1
			c-1.2,0.2-2.9,0.5-4.8-0.2c-1.6-0.6-2.4-1.6-2.8-1.3C34.3,26,34.5,26.9,34.7,27.6z"/>
		<path class="st1" d="M24.3,22c-0.9-1.5-2.8-4.4-5.9-5.6C17.7,16.1,17.1,16,17,16c-2.5-0.6-4.7,0.1-5.8,0.5c0,0.6,0,1.8,0.5,3
			c0.2,0.5,0.9,2.2,2.7,3.3c1.9,1.2,3.9,1,4.5,0.9c0.6,0,1.3,0.1,2.2,0.3c0.3,0,0.6,0.1,1,0.2c0.6,0.1,1.3,0.4,2.2,0.7
			c-0.2-0.1-0.5-0.3-0.9-0.5c-0.9-0.4-2.1-1-5.4-2.1c-1.2-0.4-1.8-0.6-2.5-1.1c-0.5-0.4-1.3-1.2-1.1-1.7c0.3-0.6,2.2-0.2,2.9-0.1
			c1.2,0.2,2.9,0.6,4.4,1.9c1.3,1.2,1.6,2.4,2.1,2.2C24.1,23.6,24.2,22.8,24.3,22z"/>
		<path class="st1" d="M25,25.9c-1.4-1-4.4-2.8-7.7-2.7c-0.8,0-1.4,0.1-1.5,0.2c-2.5,0.5-4.3,2-5.1,2.9c0.2,0.6,0.7,1.6,1.7,2.6
			c0.4,0.4,1.7,1.6,3.8,1.9c2.3,0.3,4-0.7,4.4-1c0.5-0.2,1.3-0.4,2.1-0.6c0.3-0.1,0.6-0.1,1.1-0.2c0.6-0.1,1.4-0.2,2.3-0.3
			c-0.2,0-0.6-0.1-1-0.1c-1-0.1-2.4-0.1-5.8,0.3c-1.3,0.1-1.9,0.2-2.7,0c-0.6-0.2-1.7-0.6-1.7-1.1c0-0.6,1.9-1.1,2.6-1.2
			c1.2-0.3,2.9-0.7,4.8,0c1.6,0.5,2.4,1.5,2.9,1.2C25.5,27.4,25.3,26.6,25,25.9z"/>
	</g>
	<path class="st2" d="M30.3,40.7h-2.1v-0.5c0,0-6-3.2-8.2-3.8s-10.1,0-10.1,0l7.7-9.4l13.8,3.3l-1.1,10"/>
	<path class="st2" d="M29.4,40.7h2.1v-0.5c0,0,6.1-3.2,8.4-3.8s10.3,0,10.3,0L42.3,27l-14.1,3.3l1.1,10"/>
	<path class="st3" d="M29.4,40.3c0,0-7.1-4.7-9.8-5.3S7.9,35,7.9,35l9.6-9.6c4.6,0.5,8.4,0.4,12,0L29.4,40.3z"/>
	<path class="st3" d="M30.1,40.2c0,0,7.6-4.7,10.5-5.3c2.9-0.6,12.5,0,12.5,0l-10.2-9.6c-4.9,0.5-9,0.4-12.8,0L30.1,40.2z"/>
	
		<image style="overflow:visible;" width="1024" height="1024" xlink:href="C:\Users\Personal\Downloads\—Pngtree—earth vector icon_3746518.png"  transform="matrix(-1.250745e-02 -1.244785e-02 1.244785e-02 -1.250745e-02 83.6899 36.7431)">
	</image>
	<path class="st4" d="M30.1,40.2c0,0,3.3-4.9,6.8-6.7c3.5-1.8,7.9-1.4,7.9-1.4l-5.6-7.2c0,0-2.6-0.2-5,0.5c-2.3,0.7-4.2,2.1-4.2,2.1
		V40.2z"/>
	<path class="st4" d="M30.1,40.2c0,0-3.3-4.9-6.6-6.7c-3.4-1.8-7.7-1.4-7.7-1.4l5.5-7.2c0,0,2.6-0.2,4.9,0.5
		c2.3,0.7,4.1,2.1,4.1,2.1V40.2z"/>
</g>
</svg>
